# xmcd CD database file
#
# Track frame offsets:
#	150
#	10652
#	21838
#	37696
#	54126
#	69381
#	82275
#	95006
#	112388
#	131600
#
# Disc length: 1967 seconds
#
# Revision: 0
# Processed by: cddbd v1.5.2PL0 Copyright (c) Steve Scherf et al.
# Submitted via: CDex 1.70beta2
#
DISCID=7d07ad0a
DTITLE=John Michael Montgomery - Home to you
DYEAR=1900
DGENRE=Country
TTITLE0=Love Made Me Do It 
TTITLE1=Hello L-O-V-E 
TTITLE2=Home To You 
TTITLE3=Your Love Lingers On 
TTITLE4=You Are 
TTITLE5=Sinkin' In 
TTITLE6=Holding An Amazing Love
TTITLE7=When Your Arms Were Around
TTITLE8=Love Is Our Business 
TTITLE9=Nothing Catches Jesus By Surprise 
EXTD=
EXTT0=
EXTT1=
EXTT2=
EXTT3=
EXTT4=
EXTT5=
EXTT6=
EXTT7=
EXTT8=
EXTT9=
PLAYORDER=
